<svg height="512" viewBox="0 0 512 512" width="512" xmlns="http://www.w3.org/2000/svg"><g id="flat"><path d="m336 16h-32a8 8 0 0 0 0 16h8v16a8 8 0 0 0 16 0v-16h8a8 8 0 0 0 0-16z" fill="#0a9acd"/><path d="m408.938 424h-240v-264l56-56h184z" fill="#fbb540"/><path d="m224.938 104v56h-56z" fill="#ea9d2d"/><path d="m440.938 456h-240v-32h208v-288h31.062z" fill="#ea9d2d"/><path d="m472 488h-240v-32h208v-288h32z" fill="#fbb540"/><g fill="#ea9d2d"><path d="m200 208h32v32h-32z"/><path d="m200 272h32v32h-32z"/><path d="m200 336h32v32h-32z"/><path d="m296 248h-32a8 8 0 0 1 0-16h32a8 8 0 0 1 0 16z"/><path d="m352 248h-24a8 8 0 0 1 0-16h24a8 8 0 0 1 0 16z"/><path d="m360 280h-96a8 8 0 0 1 0-16h96a8 8 0 0 1 0 16z"/><path d="m360 216h-96a8 8 0 0 1 0-16h96a8 8 0 0 1 0 16z"/><path d="m328 312h-64a8 8 0 0 1 0-16h64a8 8 0 0 1 0 16z"/><path d="m296 344h-32a8 8 0 0 1 0-16h32a8 8 0 0 1 0 16z"/><path d="m352 344h-24a8 8 0 0 1 0-16h24a8 8 0 0 1 0 16z"/><path d="m328 376h-64a8 8 0 0 1 0-16h64a8 8 0 0 1 0 16z"/></g><circle cx="320" cy="112" fill="#0bafea" r="64"/><path d="m335.994 128a7.973 7.973 0 0 1 -3.572-.847l-16-8a8 8 0 0 1 -4.422-7.153v-32a8 8 0 0 1 16 0v27.056l11.578 5.789a8 8 0 0 1 -3.584 15.155z" fill="#0a9acd"/><path d="m320 160a48 48 0 0 1 -28.8-86.4 8 8 0 0 1 9.61 12.793 32.009 32.009 0 0 0 31.99 54.948 8 8 0 0 1 6.4 14.659 47.682 47.682 0 0 1 -19.2 4z" fill="#8feaff"/><path d="m65.448 287.59h48v152h-48z" fill="#0bafea" transform="matrix(.943 -.334 .334 .943 -116.369 50.799)"/><path d="m133.562 496a8.005 8.005 0 0 1 -7.54-5.328l-8.022-22.618a8 8 0 0 1 15.08-5.348l8.022 22.62a8.006 8.006 0 0 1 -7.54 10.674z" fill="#656666"/><path d="m114.847 443.222a8 8 0 0 1 -7.54-5.328l-50.8-143.26a8 8 0 0 1 15.08-5.348l50.8 143.26a8 8 0 0 1 -7.54 10.676z" fill="#0a6fa2"/><path d="m75.974 253.779-45.24 16.042-5.347-15.081a24 24 0 0 1 14.6-30.64 24 24 0 0 1 30.641 14.6z" fill="#ffb3b3"/><path d="m34.701 260.88h48v32h-48z" fill="#cbcbcb" transform="matrix(.943 -.334 .334 .943 -89.159 35.538)"/><path d="m92.227 443.241 45.24-16.042-4.386 35.507-15.08 5.348z" fill="#e6a98d"/></g></svg>